# xmcd CD database file
#
# Track frame offsets:
#	150
#	21075
#	42810
#	65807
#	90610
#	115175
#	136687
#	156872
#	178877
#	202357
#
# Disc length: 3085 seconds
#
# Revision: 0
# Processed by: cddbd v1.5PL3 Copyright (c) Steve Scherf et al.
# Submitted via: CDex 1.50
#
DISCID=8c0c0b0a
DTITLE=川添　智久 - Water Colors
DYEAR=1994
DGENRE=Rock
TTITLE0=Wonderful Days
TTITLE1=見えない明日を拒めない
TTITLE2=Oh! Yesキスをしようよ
TTITLE3=Four Years After
TTITLE4=君が教えてくれた
TTITLE5=Out Of Romance
TTITLE6=But You're Bad Boy's Gir
TTITLE7=純情ってなんだい?
TTITLE8=僕自身の価値観
TTITLE9=Cross Rain〜眠れる夜を越えて〜
EXTD=YEAR: 1994
EXTT0=
EXTT1=
EXTT2=
EXTT3=
EXTT4=
EXTT5=
EXTT6=
EXTT7=
EXTT8=
EXTT9=
PLAYORDER=
